# xmcd
# Copyright (C) 1995-1998 Ti Kan
#
# Track frame offsets:
#       150
#       2342
#       16572
#       18177
#       34432
#       36595
#       74577
#
# Disc length: 1000 seconds
#
# Revision: 0
# Processed by: cddbd v1.4PL0 Copyright (c) Steve Scherf et al.
# Submitted via: CD-Transfer v1.0
#
DISCID=4d03e607
DTITLE=Superstition - Never Loose
DYEAR=2003
DGENRE=
TTITLE0=Reject 1
TTITLE1=Hold My Ground
TTITLE2=Reject 2
TTITLE3=Never Lose Affection
TTITLE4=Reject 3
TTITLE5=Maryjane
TTITLE6=Reject 4
EXTD=
EXTT0=
EXTT1=
EXTT2=
EXTT3=
EXTT4=
EXTT5=
EXTT6=
PLAYORDER=
